<?xml version="1.0" encoding="UTF-8" standalone="no"?>
<!DOCTYPE svg PUBLIC "-//W3C//DTD SVG 1.1//EN"
 "http://www.w3.org/Graphics/SVG/1.1/DTD/svg11.dtd">
<!-- Generated by graphviz version 15.0.0 (20260523.1842)
 -->
<!-- Title: G Pages: 1 -->
<svg width="204pt" height="109pt"
 viewBox="0.00 0.00 204.00 109.00" xmlns="http://www.w3.org/2000/svg" xmlns:xlink="http://www.w3.org/1999/xlink">
<g id="graph0" class="graph" transform="scale(1 1) rotate(0) translate(21.6 87.35)">
<title>G</title>
<polygon fill="#111111" stroke="none" points="-21.6,21.6 -21.6,-87.35 182.35,-87.35 182.35,21.6 -21.6,21.6"/>
<!-- api/axios.js -->
<g id="node1" class="node">
<title>api/axios.js</title>
<path fill="none" stroke="#cfffac" d="M113.83,-23.75C113.83,-23.75 46.92,-23.75 46.92,-23.75 42.96,-23.75 39,-19.79 39,-15.83 39,-15.83 39,-7.92 39,-7.92 39,-3.96 42.96,0 46.92,0 46.92,0 113.83,0 113.83,0 117.79,0 121.75,-3.96 121.75,-7.92 121.75,-7.92 121.75,-15.83 121.75,-15.83 121.75,-19.79 117.79,-23.75 113.83,-23.75"/>
<text xml:space="preserve" text-anchor="middle" x="80.38" y="-6.45" font-family="Arial" font-size="14.00" fill="#cfffac">api/axios.js</text>
</g>
<!-- constants/orderStatus.js -->
<g id="node2" class="node">
<title>constants/orderStatus.js</title>
<path fill="none" stroke="#cfffac" d="M152.83,-65.75C152.83,-65.75 7.92,-65.75 7.92,-65.75 3.96,-65.75 0,-61.79 0,-57.83 0,-57.83 0,-49.92 0,-49.92 0,-45.96 3.96,-42 7.92,-42 7.92,-42 152.83,-42 152.83,-42 156.79,-42 160.75,-45.96 160.75,-49.92 160.75,-49.92 160.75,-57.83 160.75,-57.83 160.75,-61.79 156.79,-65.75 152.83,-65.75"/>
<text xml:space="preserve" text-anchor="middle" x="80.38" y="-48.45" font-family="Arial" font-size="14.00" fill="#cfffac">constants/orderStatus.js</text>
</g>
</g>
</svg>
